<?xml version="1.0" encoding="UTF-8"?>
<svg id="Layer_1" data-name="Layer 1" xmlns="http://www.w3.org/2000/svg" viewBox="0 0 678 678">
  <defs>
    <style>
      .cls-1, .cls-2 {
        stroke-width: 0px;
      }

      .cls-2 {
        fill: #d64040;
      }
    </style>
  </defs>
  <g>
    <path class="cls-2" d="m339,668c-87.88,0-170.5-34.22-232.64-96.36C44.22,509.5,10,426.88,10,339S44.22,168.5,106.36,106.36C168.5,44.22,251.12,10,339,10s170.5,34.22,232.64,96.36c62.14,62.14,96.36,144.76,96.36,232.64s-34.22,170.5-96.36,232.64c-62.14,62.14-144.76,96.36-232.64,96.36Z"/>
    <path class="cls-1" d="m339,20c43.07,0,84.85,8.43,124.16,25.06,37.98,16.07,72.1,39.07,101.4,68.37,29.3,29.3,52.31,63.42,68.37,101.4,16.63,39.32,25.06,81.09,25.06,124.16s-8.43,84.85-25.06,124.16c-16.07,37.98-39.07,72.1-68.37,101.4s-63.42,52.31-101.4,68.37c-39.32,16.63-81.09,25.06-124.16,25.06s-84.85-8.43-124.16-25.06c-37.98-16.07-72.1-39.07-101.4-68.37-29.3-29.3-52.31-63.42-68.37-101.4-16.63-39.32-25.06-81.09-25.06-124.16s8.43-84.85,25.06-124.16c16.07-37.98,39.07-72.1,68.37-101.4,29.3-29.3,63.42-52.31,101.4-68.37,39.32-16.63,81.09-25.06,124.16-25.06m0-20C151.78,0,0,151.78,0,339s151.78,339,339,339,339-151.78,339-339S526.22,0,339,0h0Z"/>
  </g>
  <path class="cls-1" d="m238.06,380.37c0-6.34.08-12.69-.04-19.03-.05-2.8,1.01-4.62,3.46-5.93,3.42-1.83,6.61-4.13,10.13-5.71,3.63-1.63,4.53-4.04,4.44-7.85-.27-10.48.01-20.97-.15-31.45-.05-3.41,1.15-5.46,4.12-7.14,12.05-6.8,23.95-13.87,36.01-20.65,2.39-1.35,3.23-2.86,3.11-5.5-.19-4.39,0-8.8-.07-13.2-.05-2.58.87-4.36,3.19-5.68,11.13-6.33,22.21-12.73,33.25-19.21,2.55-1.5,4.77-1.35,7.25.1,10.83,6.33,21.68,12.63,32.59,18.81,2.55,1.44,3.76,3.26,3.66,6.21-.14,4.4.13,8.81-.09,13.2-.13,2.57.8,3.92,3.01,5.17,12.04,6.82,23.94,13.89,35.99,20.68,3.12,1.75,4.3,3.93,4.24,7.47-.18,11.13-.01,22.27-.11,33.4-.02,2.19.56,3.51,2.6,4.57,4.02,2.07,7.81,4.58,11.8,6.71,2.61,1.39,3.59,3.34,3.57,6.26-.1,12.56-.1,25.11,0,37.67.02,2.91-.91,4.87-3.48,6.33-11.13,6.32-22.23,12.7-33.27,19.18-2.46,1.45-4.5,1.31-6.83-.14-3.74-2.31-7.69-4.28-11.37-6.67-2.15-1.39-3.76-1.31-5.96-.01-11.8,6.97-23.77,13.66-35.56,20.65-3.16,1.87-5.71,1.98-8.93.06-11.77-7.01-23.74-13.7-35.55-20.67-2.17-1.28-3.79-1.49-5.97-.09-3.81,2.44-7.86,4.48-11.72,6.84-2.23,1.36-4.18,1.44-6.49.09-11.15-6.55-22.44-12.87-33.49-19.57-1.62-.98-3.07-3.56-3.19-5.48-.4-6.45-.15-12.94-.15-19.41Zm135.68,31.18c-3.6-2.12-6.5-4.03-9.6-5.59-3.03-1.52-4.24-3.63-4.2-7.08.17-12.29.15-24.59.01-36.89-.04-3.23,1.03-5.24,3.9-6.85,10.82-6.08,21.57-12.29,32.24-18.63,2.83-1.68,5.17-1.67,7.89.07,2.98,1.9,6.16,3.49,9.72,5.47,0-10.41.09-20.1-.11-29.8-.02-1.14-1.38-2.64-2.51-3.32-6.98-4.2-14.07-8.22-21.13-12.28-3.42-1.97-6.85-3.91-10.99-6.27,0,4.48-.07,8.19.02,11.89.07,2.73-.9,4.57-3.37,5.97-11.02,6.24-21.99,12.59-32.91,19.02-2.68,1.58-4.92,1.43-7.56-.12-10.58-6.24-21.2-12.42-31.93-18.38-3.17-1.76-4.4-3.98-4.19-7.48.2-3.41.04-6.84.04-10.92-11.65,6.72-22.51,12.96-33.33,19.28-.65.38-1.33,1.38-1.33,2.09-.09,9.92-.06,19.84-.06,30.49,3.79-2.18,7.05-3.94,10.19-5.9,2.35-1.47,4.49-1.52,6.89-.12,11.05,6.45,22.13,12.87,33.24,19.22,2.41,1.38,3.41,3.2,3.39,5.97-.09,12.68-.1,25.37.01,38.05.03,2.98-1.1,4.87-3.64,6.24-3.26,1.77-6.44,3.7-10.13,5.84,11.5,6.64,22.44,12.98,33.43,19.22.7.4,2.04.34,2.76-.07,10.9-6.19,21.74-12.48,33.25-19.12Zm-66.46-141.93c0,10.6-.06,20.39.09,30.17.01.96,1.13,2.21,2.06,2.78,5.63,3.4,11.35,6.65,17.05,9.94,2.62,1.51,5.26,2.99,8.45,4.81,0-10.62.04-20.4-.06-30.19,0-.82-.71-1.98-1.43-2.41-8.43-4.96-16.93-9.8-26.16-15.11Zm63.48.04c-8.38,4.81-16.01,9.35-23.82,13.56-2.84,1.53-4.13,3.21-3.94,6.57.32,5.54.09,11.1.09,16.66,0,3.41,0,6.82,0,10.95,9.32-5.38,17.92-10.3,26.44-15.35.68-.4,1.17-1.68,1.18-2.55.08-9.68.05-19.35.05-29.85Zm-65.22,90.15c-9.1-5.28-17.63-10.25-26.21-15.14-.63-.36-1.82-.35-2.45,0-8.62,4.89-17.18,9.86-26.31,15.14,9.17,5.26,17.86,10.27,26.59,15.2.52.29,1.53.21,2.08-.1,8.61-4.89,17.18-9.85,26.31-15.11Zm61-97.31c-9-5.22-17.47-10.16-26-15-.73-.41-2.07-.5-2.76-.11-8.65,4.88-17.23,9.88-26.22,15.08,8.92,5.13,17.39,10.06,25.95,14.82.87.48,2.54.3,3.48-.22,8.35-4.65,16.61-9.44,25.56-14.57Zm5.98,97.31c9.13,5.25,17.71,10.2,26.32,15.09.56.32,1.56.43,2.08.13,8.72-4.94,17.4-9.95,26.56-15.23-9.02-5.23-17.45-10.17-25.97-14.97-.79-.45-2.29-.39-3.11.07-8.42,4.75-16.76,9.63-25.88,14.9Zm-4.1,7.23c0,10.61-.03,20.51.06,30.42,0,.72.68,1.71,1.33,2.09,8.43,4.95,16.92,9.82,25.98,15.05,0-10.57.03-20.48-.05-30.4,0-.73-.61-1.76-1.25-2.13-8.45-4.94-16.95-9.79-26.07-15.03Zm63.19.02c-7.54,4.33-14.16,8.63-21.22,12.01-5.07,2.43-6.68,5.6-6.32,11.08.52,7.92.13,15.89.13,24.48,9.13-5.27,17.63-10.14,26.06-15.12.7-.41,1.29-1.64,1.3-2.5.09-9.69.06-19.39.06-29.96Zm-185.15-.02c0,10.6-.03,20.3.06,30,0,.85.61,2.08,1.31,2.49,8.43,4.97,16.93,9.82,26.02,15.06,0-10.56.03-20.46-.05-30.36,0-.74-.6-1.78-1.23-2.15-8.45-4.94-16.95-9.78-26.1-15.03Zm35.81,47.6c9.04-5.22,17.53-10.03,25.89-15.06.89-.54,1.42-2.33,1.45-3.56.13-7.61.07-15.23.07-22.85,0-1.83,0-3.66,0-6.15-9.19,5.29-17.57,10.08-25.9,14.95-.66.39-1.43,1.31-1.44,2-.09,10.01-.06,20.01-.06,30.67Z"/>
  <g>
    <path class="cls-1" d="m151.56,339.21c12.14,8.27,21.13,18.41,27,31.15,5.85,12.7,8.87,26.18,9.75,40.06,1.51,23.8,2.64,47.63,3.95,71.44.63,11.35,5.84,16.63,17.1,17.13,6.12.27,12.26.33,18.39.26,3.2-.04,4.63.78,4.56,4.39-.22,12.13-.12,24.27-.05,36.4.01,2.29-.54,3.61-3.08,3.99-13.38,2.01-26.73,2.41-40.03-.5-24.43-5.35-39.96-19.67-45.03-44.62-4.09-20.15-5.45-40.46-4.91-61.01.45-16.83-.4-33.63-4.99-50-3.37-12.02-11.45-18.97-23.44-21.48-4.83-1.01-9.78-1.54-14.7-2.09-2.38-.27-3.39-1.23-3.38-3.69.06-14.48.05-28.97.02-43.45,0-2.34.84-3.66,3.31-3.9,4.02-.4,8.02-1.03,12.04-1.41,13.69-1.29,22.62-8.04,25.58-21.42,2.49-11.26,3.95-22.84,4.87-34.35,1.72-21.56,2.39-43.21,4.14-64.78,1.08-13.33,4.26-26.25,12.61-37.28,9.69-12.81,23.18-18.96,38.55-20.57,11.75-1.23,23.67-.75,35.51-1.13,2.82-.09,3.58,1.21,3.57,3.77-.07,12.66-.06,25.31,0,37.97.01,2.41-.85,3.61-3.38,3.67-4.82.11-9.64.32-14.45.6-3.11.18-6.26.29-9.3.91-7.55,1.54-12.05,6.21-13.58,13.82-3,14.84-2.32,29.86-2.25,44.85.09,19.51-2.38,38.79-6.72,57.73-3.82,16.7-14.26,29.34-27.28,39.99-1.3,1.06-2.61,2.11-4.34,3.51Z"/>
    <path class="cls-1" d="m526.36,339.59c-5.42-4.9-10.44-9.05-15.02-13.66-10.54-10.6-15.99-23.61-17.28-38.42-2.39-27.38-4.77-54.76-7.14-82.15-.29-3.37-.41-6.77-.81-10.12-1.32-10.87-7.82-16.51-19.45-16.79-6.13-.15-12.26-.13-18.39,0-2.62.06-3.75-.7-3.72-3.52.11-12.39-.03-24.79.17-37.18.02-1.19,1.54-3.23,2.6-3.4,17.97-2.94,35.84-3.29,53.14,3.53,19.12,7.54,29.81,22.11,33.93,41.8,3.51,16.83,2.78,33.99,3.36,51.04.67,19.54,1.2,39.08,6.13,58.18,3.05,11.83,9.45,20.3,22.05,22.57,4.99.9,10.11,1.09,15.18,1.47,2.98.23,4.26,1.4,4.23,4.64-.16,14.09-.14,28.18,0,42.27.03,2.95-1.1,4.37-3.83,4.79-3.22.5-6.43,1.03-9.66,1.44-18.34,2.35-28.46,12.34-30.2,30.76-1.22,12.84-1.78,25.75-2.45,38.63-1.1,21.08-1.44,42.24-5.53,63.03-4.9,24.91-20.49,42.27-47,45.42-12.62,1.5-25.47,1.11-38.21,1.64-2.64.11-3.4-1.24-3.4-3.58.02-12.65.04-25.31-.01-37.96-.01-2.68,1.13-3.47,3.76-3.65,7.79-.51,15.64-.86,23.31-2.21,9.31-1.64,14.06-7.15,14.9-16.6.83-9.34,1.11-18.74,1.62-28.11.98-18.35,1.19-36.78,3.12-55.02,2.52-23.88,13.19-43.7,33.12-57.92.42-.3.89-.55,1.51-.93Z"/>
  </g>
</svg>